<svg id="earth" xmlns="http://www.w3.org/2000/svg" xmlns:xlink="http://www.w3.org/1999/xlink" viewBox="0 0 577 657">
<defs><linearGradient id="linear-gradient" x1="1" y1="368.83" x2="269.94" y2="368.83" gradientUnits="userSpaceOnUse"><stop offset="0" stop-color="#1a171b" stop-opacity="0.5"/><stop offset="0.46" stop-color="#1a171b" stop-opacity="0.14"/><stop offset="1" stop-color="#1a171b" stop-opacity="0"/></linearGradient></defs><title>Asset 2</title><g id="Layer_2" data-name="Layer 2"><g id="Layer_1-2" data-name="Layer 1"><path d="M0,368.64C0,209.39,129.1,80.29,288.36,80.29s288.36,129.1,288.36,288.36S447.61,657,288.36,657" style="fill:#73d1d9"/><path d="M288.36,656C129.1,656,0,526.9,0,367.64" style="fill:#73d1d9"/><path d="M83,270c4.15,3.9-1.08,17.3.53,22.76,1.36,4.61,6.07,13.72,10.06,16.41,2,1.35,7.58,3,9.52,1.59,1.51-1.11,1.63-5.63,1.06-7.41-1.35-4.19-10.54-8.62-12.18-12.7-1.53-3.81-2.77-13.38,0-16.41,1-1.08,4.72-1.47,5.83-.53,3,2.58-.51,12.22,1.06,15.88,2.7,6.28,17.89,13.31,18.53,20.11.23,2.49-5.23,6-5.29,8.47-.13,5.15,5.86,15,10.06,18s16.28,6.61,20.64,3.7c1-.68,0-4.12,1.06-4.77,2-1.23,7.49.36,9,2.12,1.12,1.31-.68,5.65.53,6.88,3,3,13.17-.39,16.94,1.59,5.65,3,10.76,16.6,16.4,19.58,4.7,2.49,17.3-1.53,21.17,2.12,2.6,2.45,2,11.05.53,14.29-1.84,3.93-11.71,6.76-13.76,10.58-2.69,5-3.2,17.29-1.58,22.76,2.43,8.25,17.47,19.53,20.64,27.52.88,2.23-.78,8,1.05,9.53s6.86-1.21,9-.53c4.67,1.47,13.27,7.74,15.35,12.17,5.12,10.9-8.85,39-1.06,48.16.94,1.11,4.88-1.11,5.82,0,3.21,3.78-4.42,14.78-3.18,19.58.8,3.1,6.89,7,7.94,10.06,2,5.88-.58,18.68,0,24.87,1,10.93,1.56,21.43,28.58,33.34,3.68,1.62,18.18,2.71,15.88-2.64-1.44-3.36-9.57-6.55-10.59-10.06-1.22-4.19,6.69-13.33,4.24-16.94-1.12-1.66-6.2-.07-7.94-1.06-1.48-.83-4.37-3.6-4.24-5.29.17-2.15,5.49-3.85,6.36-5.82a4.63,4.63,0,0,0,0-3.18c-1-1.59-5.69-1.7-6.88-3.18-.75-.93-.89-4,0-4.77,6.45-5.67,19,1.75,30.16-16.4,4-6.45,16.39-17,18-24.35,1.09-5-5.39-15.1-4.23-20.11.34-1.47,2.3-4.21,3.71-4.77,3.86-1.52,12.35,3.55,16.4,2.65,3.44-.76,9.84-4.91,11.65-7.93,4.57-7.65.1-27.31,3.71-35.46,2-4.54,11.46-10.18,13.23-14.82.8-2.1,1.85-7.71,0-9-4.26-3-2.35-2.12-16.41-12.7-5.94-4.47-22.27-1.61-29.63-2.65-3.94-.55-12.71-2.45-14.82-5.82-1.83-2.92,2-10.43,1.06-13.76-.85-3.12-4.59-9-7.41-10.59-3.82-2.14-13.66,1.1-17.47-1.06-4.47-2.53-7.1-14.54-11.64-16.93-1.29-.68-4.66-.88-5.82,0-.77.58-.3,3.11-1.06,3.7-3.13,2.45-12.41,2.45-15.88.53-7.55-4.19-4.36-12.71-34.4,3.18-5,2.63-18.5,1-22.23-3.18-3.86-4.36,3.14-18.77-.53-23.29-2.57-3.16-13.93-.12-15.88-3.7s6.93-11.24,5.29-14.82c-.77-1.68-5.05-2.87-6.88-2.65-5.76.69-13.46,11.71-19.05,13.23-10.19,2.78-45.71-19.47,9-41.28,8.49-3.38,30.1-8.09,36.52-1.59,1.68,1.7-1.77,7.49-.53,9.53,1.36,2.22,7.4,5.74,9.52,4.23,3.26-2.3-.28-12.35,1.59-15.88,3.55-6.73,19.52-13,23.29-19.58.8-1.4.23-5,1.06-6.35,5.15-8.58,24.84-17.12,31.76-24.35,3.35-3.5,6.39-14.74,11.11-15.88,2.19-.53,5.72,4.56,7.94,4.23,1.48-.22,4.43-2.75,4.23-4.23-.28-2.12-6.39-2.36-7.41-4.24-1.22-2.24.53-10.06,10.06-1.59s11.57-1.26,15.34-2.11c1.11-.25,3.66,1.51,3.7,2.64s-2.73,1.71-3.17,2.65c-.73,1.56-1,5.49,0,6.88,2.53,3.48,12.6,7.31,16.4,5.29,2.07-1.1,3.68-6.9,2.65-9-1.13-2.3-8.09-1.59-9.53-3.7a4.66,4.66,0,0,1,0-3.71c1-1.59,5.86-1.58,6.88-3.18,1.14-1.78.93-6.56,0-8.46-1.32-2.71-8.06-4.78-9.52-7.41-1.87-3.37,1.74-13.4-1.59-15.35-2.87-1.67-8.89,4.78-12.17,5.29-1.31.2-4.4.46-5.29-.53-1.51-1.67,1.28-7.15,0-9-2.82-4.06-13.63-7.52-18.53-6.88-2.73.36-7.73,3.91-9,6.35-2.31,4.46,3.27,16.29,0,20.11-2.26,2.64-10.92.12-13.76,2.12s-4,10.56-6.88,12.7c-1.09.8-4.25,1.91-5.29,1.06-3-2.43,2.68-12.6,0-15.35-4.42-4.53-46.33-3.49-4.76-24.88,4.37-2.25,13.55-10.06,18-7.94,1.85.89.36,6.88,2.12,7.94,1.51.91,5.67-.3,6.88-1.59s-.21-5.36,1.06-6.35,4.89,1.17,6.35.53c3.54-1.55,6.35-10,9.52-12.17,4.18-2.91,20.11-3.18,20.11-3.18s3.94,3.69,3.71,5.29c-.71,4.85-16.38,7.39-15.35,12.17,1.27,5.87,17.87,8.42,23.28,5.82,1.71-.82,1.62-5.79,3.17-6.88,2.61-1.83,10.28,1,12.71-1.06,1.66-1.41,3.16-6.55,2.11-8.47-.8-1.47-5.33-.79-6.35-2.12-1.37-1.79-.53-9-.53-9s-37.14-31.14-51.34-4.23c-1.24,2.35.91,8.8-1.06,10.58s-8.65,1.81-10.58,0c-1.55-1.45-1.41-6.53-.53-8.46,1.17-2.58,9.83-4.18,9-6.88-1.45-4.69-15.25-3.36-19.58-1.06-2,1.09-5.79,5.87-4.76,7.94.53,1.07,3.9-.31,4.76.53,1.34,1.3,2.31,6,1.06,7.41-2,2.26-9.91-2.57-12.17-.53-.81.73-.21,3.55-1.06,4.23-3.5,2.82-14.87,3.77-18,.53-1.38-1.43-1.06-6.75.53-7.94,2.54-1.9,9.86,1.42,12.71,0,2.37-1.18,6.7-5.84,6.35-8.47-.2-1.5-3.26-3.76-4.76-3.71s-3.57,3.17-4.76,4.24c-2.49,2.23-.19,2.46-11.54-6.77-3.77-3.06-19.43-.25-19.43-.25l-10.09,10.09,8.58.25-3,7.26S206,141,208.42,143.5c.65.67.11,3-.53,3.71-2.78,2.94-15.88,3.18-15.88,3.18l-4.76-7.94-11.64-3.17-8.17-1.17A268.37,268.37,0,0,0,70.84,244.54l1,2.16S73,260.55,83,270Z" style="fill:#3ea92a"/><path d="M270.47,230.1c-2.77,0-5,1.66-5,3.71s2.25,3.7,5,3.7,5-1.66,5-3.7S273.25,230.1,270.47,230.1Z" style="fill:#3ea92a"/><path d="M286.61,228c-1.55,1-6.32-1.5-7.41,0s.85,5.25,2.11,6.35,4.53,1.77,5.82,1.06.81-4.73,2.12-5.29,4.11,2.92,5.29,2.12c1.86-1.26,1.59-7.41,0-9-1-1-4.6-.79-5.82,0S287.71,227.27,286.61,228Z" style="fill:#3ea92a"/><path d="M464.83,180.35c1.57,1.86,1.63,7.73,3.71,9,2.41,1.47,8.89-3.87,11.11-2.11s2.61,9.6.54,11.64c-3.69,3.64-16.14-1-20.65,1.59-4,2.24-6.49,12.81-10.58,14.82-3,1.46-10.7-2.66-13.23-.53-2.35,2-3.31,9.63-1.58,12.17.61.9,3.56.2,4.23,1.06,1.22,1.57,1.44,6.57,0,7.94-3.56,3.37-14.68-1.25-19.58-1.06-3,.12-8.71,1-8.47,8.47.13,3.87-.4,12.41,2.12,15.35,1.8,2.1,7.83,3.38,10.58,3.18,4.66-.34,13.31-5,16.94-7.94,4.11-3.34,7.79-15,12.7-16.94,3-1.2,9.69,3.26,12.7,2.12,2.55-1,4.17-8.82,6.88-8.47,2,.27.9,6.29,2.13,7.94,3.16,4.24,16,6.21,18,11.11,1,2.53-4,8.25-2.65,10.58a2.44,2.44,0,0,0,2.11.53c3.12-1.11,7.94-10.58,7.94-10.58s-11.79-8.64-14.29-12.7c-1.08-1.75-3.33-6.28-2.11-7.94,1.64-2.25,8.5-1.47,11.11-.53,3.53,1.26,9.58,6.64,11.12,10.06,1.21,2.68.18,9.07,1.59,11.64,1.67,3,7.45,10.49,10.58,9,4.44-2.12,1.06-11.64,10.06-16.94,0,0-.51,8.92.53,11.64,1,2.55,4.38,7.38,6.88,8.47,4.89,2.14,21.3-1.36,21.3-1.36a268,268,0,0,0-77.86-104.37l-2.72,5.7S451.94,165.09,464.83,180.35Z" style="fill:#3ea92a"/><path d="M564.42,283.12s-23.11,3.44-30.26,1c-3.11-1.08-7-7.34-10.06-8.47-3.35-1.22-11.49-2.22-14.29,0-1.38,1.1-.3,5.68-1.59,6.88-6.17,5.76-20.82,3.3-32.82-7.94-2.61-2.44,2.5-11.74,0-14.29-5.48-5.59-23.84-.47-31.23,2.12-2,.69-4.89,4.12-6.88,4.77-5,1.65-16.15-1.15-21.17.53-3.24,1.08-9.69,4.83-11.11,7.94s1.5,10.29,0,13.23c-4.08,8-25.84,12.78-29.11,21.17-.74,1.89.15,6.52,1.59,7.94,1.06,1,5-.15,5.82,1.06,1.47,2.08.25,8.3-1.59,10.06-.87.83-4-.35-4.76.53-3.93,4.29-2.49,17.8-.53,23.28,3.35,9.36,16.81,26.21,25.93,30.17,2.8,1.21,9.89,1.49,12.17-.53.6-.53-.09-2.66.53-3.18,3.84-3.25,15.7,2.42,20.11,0,1.51-.83,2.2-5,3.7-5.82,2.87-1.65,10.27-2,13.23-.53,2.3,1.15,3.55,7.27,5.82,8.47,3.16,1.66,11.69-2.45,14.29,0,4.64,4.35-.19,19.29,1.59,25.4,2.37,8.13,16,21.18,16.4,29.64.23,5.5-7.85,14.72-9,20.11-.5,2.33-1,7.38,0,9.53,1.25,2.64,7.79,4.76,9,7.41,2.14,4.7-2.19,15.76-.53,20.64,1.15,3.38,7.81,7.74,9,11.11,1.81,5.11,0,21.7,0,21.7h23a267.3,267.3,0,0,0,42.76-243.88Z" style="fill:#3ea92a"/><line x1="196.1" x2="196.1" y2="119.64" style="fill:none;stroke:#c6c7c8;stroke-miterlimit:10;stroke-width:2px"/><polygon points="372.06 74.97 195.99 74.97 195.99 13 372.06 13 351.41 43.56 372.06 74.97" style="fill:#f6f6f6"/><text transform="translate(225.75 54.53)" style="font-size:28px;font-family:JosefinSans-Bold, Josefin Sans;font-weight:700">EA<tspan x="38.14" y="0" style="letter-spacing:-0.014997209821428572em">R</tspan><tspan x="56.92" y="0" style="letter-spacing:0.00001743861607142857em">TH</tspan></text>

<a xlink:href="start-game/3/1" >
<circle cx="196.5" cy="126.5" r="26" style="fill:#fff;stroke:#0fbab6;stroke-miterlimit:10;stroke-width:7px"/><rect id="red" x="233.5" y="126.5" width="45" height="12" rx="6" ry="6" transform="translate(512 265) rotate(-180)" style="fill:#fff;stroke:#fff;stroke-miterlimit:10;stroke-width:0.75px"/>
</a>

<a xlink:href="start-game/3/2">
<circle cx="374.5" cy="149.5" r="26" style="fill:#fff;stroke:#0fbab6;stroke-miterlimit:10;stroke-width:7px"/><rect x="374.5" y="193.5" width="45" height="12" rx="6" ry="6" transform="translate(385.28 643.65) rotate(-115.17)" style="fill:#fff;stroke:#fff;stroke-miterlimit:10;stroke-width:0.75px"/>
</a>

<a xlink:href="start-game/3/3">
<circle cx="423.5" cy="250.5" r="26" style="fill:#fff;stroke:#0fbab6;stroke-miterlimit:10;stroke-width:7px"/><rect x="354.5" y="285.5" width="45" height="12" rx="6" ry="6" transform="translate(849.24 355.45) rotate(150)" style="fill:#fff;stroke:#fff;stroke-miterlimit:10;stroke-width:0.75px"/><rect x="302.5" y="306.5" width="45" height="12" rx="6" ry="6" transform="translate(707.23 551.63) rotate(168.15)" style="fill:#fff;stroke:#fff;stroke-miterlimit:10;stroke-width:0.75px"/><rect x="245.5" y="318.5" width="45" height="12" rx="6" ry="6" transform="translate(596.91 587.07) rotate(168.15)" style="fill:#fff;stroke:#fff;stroke-miterlimit:10;stroke-width:0.75px"/>
</a>

<a xlink:href="start-game/3/4">
<circle cx="141.5" cy="370.5" r="26" style="fill:#fff;stroke:#0fbab6;stroke-miterlimit:10;stroke-width:7px"/><rect x="182.5" y="337.5" width="45" height="12" rx="6" ry="6" transform="translate(528.44 578.88) rotate(156.87)" style="fill:#fff;stroke:#fff;stroke-miterlimit:10;stroke-width:0.75px"/><rect x="164.5" y="405.5" width="45" height="12" rx="6" ry="6" transform="translate(123.64 859.03) rotate(-147.5)" style="fill:#fff;stroke:#fff;stroke-miterlimit:10;stroke-width:0.75px"/>
</a>

<a xlink:href="start-game/3/5">
<circle cx="248.5" cy="454.5" r="26" style="fill:#fff;stroke:#0fbab6;stroke-miterlimit:10;stroke-width:7px"/><rect x="281.5" y="479.5" width="45" height="12" rx="6" ry="6" transform="translate(356.07 1055.95) rotate(-153.16)" style="fill:#fff;stroke:#fff;stroke-miterlimit:10;stroke-width:0.75px"/><rect x="343.5" y="501.5" width="45" height="12" rx="6" ry="6" transform="translate(693.15 1040.87) rotate(-175.72)" style="fill:#fff;stroke:#fff;stroke-miterlimit:10;stroke-width:0.75px"/><rect x="295.5" y="130.5" width="45" height="12" rx="6" ry="6" transform="matrix(-0.99, -0.16, 0.16, -0.99, 609.28, 323.34)" style="fill:#fff;stroke:#fff;stroke-miterlimit:10;stroke-width:0.75px"/>
</a>

<a xlink:href="start-game/3/6">
<circle cx="437.5" cy="512.5" r="26" style="fill:#fff;stroke:#9e0b19;stroke-miterlimit:10;stroke-width:7px"/><path d="M139.84,368.83c0,196,130.09,281,130.09,281C121.41,649.85,1,524,1,368.83s120.41-281,268.94-281C269.94,87.8,139.84,179.95,139.84,368.83Z" style="fill:url(#linear-gradient)"/>
</a>
</g></g>
</svg>