<svg id="jupiter" xmlns="http://www.w3.org/2000/svg" xmlns:xlink="http://www.w3.org/1999/xlink" viewBox="0 0 576.71 657"><defs><linearGradient id="linear-gradient" y1="367.83" x2="268.94" y2="367.83" gradientUnits="userSpaceOnUse"><stop offset="0" stop-color="#1a171b" stop-opacity="0.5"/><stop offset="0.46" stop-color="#1a171b" stop-opacity="0.14"/><stop offset="1" stop-color="#1a171b" stop-opacity="0"/></linearGradient></defs><title>Asset 2</title><g id="Layer_2" data-name="Layer 2"><g id="Layer_1-2" data-name="Layer 1">

<a xlink:href="start-game/5/1">
<circle cx="288.36" cy="368.64" r="288.36" style="fill:#c45a3d"/><path d="M138.84,367.83c0,196,130.09,281,130.09,281C120.41,648.85,0,523,0,367.83s120.41-281,268.94-281C268.94,86.8,138.84,178.95,138.84,367.83Z" style="fill:url(#linear-gradient)"/><line x1="196.1" x2="196.1" y2="119.64" style="fill:none;stroke:#c6c7c8;stroke-miterlimit:10;stroke-width:2px"/><polygon points="372.06 74.97 195.99 74.97 195.99 13 372.06 13 351.41 43.56 372.06 74.97" style="fill:#f6f6f6"/><text transform="translate(221.75 54.53)" style="font-size:28px;font-family:JosefinSans-Bold, Josefin Sans;font-weight:700">JUPITER</text>
</a>

<a xlink:href="start-game/5/2">
<circle cx="196.5" cy="147.5" r="26" style="fill:#fff;stroke:#0fbab6;stroke-miterlimit:10;stroke-width:7px"/><rect x="233.5" y="158.5" width="45" height="12" rx="6" ry="6" transform="translate(481.53 368.79) rotate(-170.55)" style="fill:#fff;stroke:#fff;stroke-miterlimit:10;stroke-width:0.75px"/>
</a>

<a xlink:href="start-game/5/3">
<circle cx="319.5" cy="175.5" r="26" style="fill:#fff;stroke:#0fbab6;stroke-miterlimit:10;stroke-width:7px"/><rect x="349.5" y="201.5" width="45" height="12" rx="6" ry="6" transform="translate(521.19 606.48) rotate(-139.66)" style="fill:#fff;stroke:#fff;stroke-miterlimit:10;stroke-width:0.75px"/>
</a>

<a xlink:href="start-game/5/4">
<circle cx="423.5" cy="250.5" r="26" style="fill:#fff;stroke:#0fbab6;stroke-miterlimit:10;stroke-width:7px"/>
</a>

<a xlink:href="start-game/5/5">
<circle cx="442.5" cy="497.5" r="26" style="fill:#fff;stroke:#9e0b19;stroke-miterlimit:10;stroke-width:7px"/><path d="M276.74,256.59c-26,4.42-63.38-5.74-72.88-7.51-15.15-2.83-21.2-7.46-66,10.55-16.51,6.63-39.57,12.23-62.13,16.65C49.25,281.47,23.5,285,9.84,286.79,9.33,291.42,6.63,301.3,7,306l2.57-5.19c24.06-8.43,40.69-6.05,54-5.18,28.39,1.86,35.68-3.85,114.88-11.69,43.54-4.31,53.41-5.38,95.6-9.59,65.78-6.56,67.67-17.65,89.31-18.58a85.73,85.73,0,0,0-16.74-29.38C300.36,228.69,319.6,249.3,276.74,256.59Z" style="fill:#f8e2b2"/><path d="M486.74,336.59c-26,4.42-63.38-5.74-72.88-7.51-15.15-2.83-21.2-7.46-66,10.55-16.51,6.63-39.57,12.23-62.13,16.65-26.45,5.19-52.19,8.76-65.85,10.51-.51,4.62-3.21,14.5-2.84,19.21l2.57-5.19c24.06-8.43,40.69-6.05,54-5.18,28.39,1.86,35.68-3.85,114.88-11.69,43.54-4.31,53.41-5.38,95.6-9.59C549.85,347.8,553.36,337.93,575,337c-1.83-8,.37-29.83-8-40C520.72,299.3,529.6,329.3,486.74,336.59Z" style="fill:#f8e2b2"/><rect x="354.5" y="285.5" width="45" height="12" rx="6" ry="6" transform="translate(849.24 355.45) rotate(150)" style="fill:#fff;stroke:#fff;stroke-miterlimit:10;stroke-width:0.75px"/><rect x="302.5" y="306.5" width="45" height="12" rx="6" ry="6" transform="translate(707.23 551.63) rotate(168.15)" style="fill:#fff;stroke:#fff;stroke-miterlimit:10;stroke-width:0.75px"/><rect x="245.5" y="318.5" width="45" height="12" rx="6" ry="6" transform="translate(596.91 587.07) rotate(168.15)" style="fill:#fff;stroke:#fff;stroke-miterlimit:10;stroke-width:0.75px"/>
</a>

<a xlink:href="start-game/5/6">
<circle cx="212.5" cy="332.5" r="26" style="fill:#fff;stroke:#0fbab6;stroke-miterlimit:10;stroke-width:7px"/><rect x="155.5" y="373.5" width="45" height="12" rx="6" ry="6" transform="translate(581.57 266.2) rotate(99.45)" style="fill:#fff;stroke:#fff;stroke-miterlimit:10;stroke-width:0.75px"/><rect x="169.5" y="422.5" width="45" height="12" rx="6" ry="6" transform="translate(123.72 893.06) rotate(-147.5)" style="fill:#fff;stroke:#fff;stroke-miterlimit:10;stroke-width:0.75px"/>
</a>

<a xlink:href="start-game/5/7">
<circle cx="248.5" cy="454.5" r="26" style="fill:#fff;stroke:#0fbab6;stroke-miterlimit:10;stroke-width:7px"/><rect x="281.5" y="479.5" width="45" height="12" rx="6" ry="6" transform="translate(356.07 1055.95) rotate(-153.16)" style="fill:#fff;stroke:#fff;stroke-miterlimit:10;stroke-width:0.75px"/><rect x="343.5" y="501.5" width="45" height="12" rx="6" ry="6" transform="translate(693.15 1040.87) rotate(-175.72)" style="fill:#fff;stroke:#fff;stroke-miterlimit:10;stroke-width:0.75px"/><path d="M95,583c3.26,1.76,6.86,7.29,13,11,5.95,3.6,15.52,12.36,18,14,29.81,19.77,30.4,14.42,34.44,12.66,2.65-1.15,6.2-4.89,6.56-18.66,10-10.19,39.44-18.41,71.54-25.59,29.22-6.53,51.47-19.91,72.17-22.91a51.77,51.77,0,0,0,6.29-7.24c-21.83,3.13-64.86,21.34-82.52,24.14C118.55,588.79,101.91,577,95,583Z" style="fill:#792f10"/><ellipse cx="104.5" cy="359" rx="29.5" ry="9" style="fill:#792f10"/><ellipse cx="397.5" cy="602" rx="25.5" ry="8" style="fill:#792f10"/><ellipse cx="507" cy="271" rx="28" ry="5" style="fill:#792f10"/>
</a>
</g></g></svg>