<svg id="mars" xmlns="http://www.w3.org/2000/svg" xmlns:xlink="http://www.w3.org/1999/xlink" viewBox="0 0 576.71 657"><defs><linearGradient id="linear-gradient" y1="367.83" x2="268.94" y2="367.83" gradientUnits="userSpaceOnUse"><stop offset="0" stop-color="#1a171b" stop-opacity="0.5"/><stop offset="0.46" stop-color="#1a171b" stop-opacity="0.14"/><stop offset="1" stop-color="#1a171b" stop-opacity="0"/></linearGradient></defs><title>Asset 2</title><g id="Layer_2" data-name="Layer 2"><g id="Layer_1-2" data-name="Layer 1"><circle cx="288.36" cy="368.64" r="288.36" style="fill:#e27f7f"/><path d="M138.84,367.83c0,196,130.09,281,130.09,281C120.41,648.85,0,523,0,367.83s120.41-281,268.94-281C268.94,86.8,138.84,178.95,138.84,367.83Z" style="fill:url(#linear-gradient)"/><line x1="196.1" x2="196.1" y2="119.64" style="fill:none;stroke:#c6c7c8;stroke-miterlimit:10;stroke-width:2px"/><polygon points="372.06 74.97 195.99 74.97 195.99 13 372.06 13 351.41 43.56 372.06 74.97" style="fill:#f6f6f6"/><text transform="translate(233.75 54.53)" style="font-size:28px;font-family:JosefinSans-Bold, Josefin Sans;font-weight:700">MARS</text><circle cx="196.5" cy="147.5" r="26" style="fill:#fff;stroke:#0fbab6;stroke-miterlimit:10;stroke-width:7px"/><rect x="233.5" y="158.5" width="45" height="12" rx="6" ry="6" transform="translate(481.53 368.79) rotate(-170.55)" style="fill:#fff;stroke:#fff;stroke-miterlimit:10;stroke-width:0.75px"/><circle cx="319.5" cy="175.5" r="26" style="fill:#fff;stroke:#0fbab6;stroke-miterlimit:10;stroke-width:7px"/><rect x="349.5" y="201.5" width="45" height="12" rx="6" ry="6" transform="translate(521.19 606.48) rotate(-139.66)" style="fill:#fff;stroke:#fff;stroke-miterlimit:10;stroke-width:0.75px"/><circle cx="423.5" cy="250.5" r="26" style="fill:#fff;stroke:#0fbab6;stroke-miterlimit:10;stroke-width:7px"/><circle cx="442.5" cy="497.5" r="26" style="fill:#fff;stroke:#9e0b19;stroke-miterlimit:10;stroke-width:7px"/><rect x="354.5" y="285.5" width="45" height="12" rx="6" ry="6" transform="translate(849.24 355.45) rotate(150)" style="fill:#fff;stroke:#fff;stroke-miterlimit:10;stroke-width:0.75px"/><rect x="302.5" y="306.5" width="45" height="12" rx="6" ry="6" transform="translate(707.23 551.63) rotate(168.15)" style="fill:#fff;stroke:#fff;stroke-miterlimit:10;stroke-width:0.75px"/><rect x="245.5" y="318.5" width="45" height="12" rx="6" ry="6" transform="translate(596.91 587.07) rotate(168.15)" style="fill:#fff;stroke:#fff;stroke-miterlimit:10;stroke-width:0.75px"/><circle cx="212.5" cy="332.5" r="26" style="fill:#fff;stroke:#0fbab6;stroke-miterlimit:10;stroke-width:7px"/><rect x="155.5" y="373.5" width="45" height="12" rx="6" ry="6" transform="translate(581.57 266.2) rotate(99.45)" style="fill:#fff;stroke:#fff;stroke-miterlimit:10;stroke-width:0.75px"/><rect x="169.5" y="422.5" width="45" height="12" rx="6" ry="6" transform="translate(123.72 893.06) rotate(-147.5)" style="fill:#fff;stroke:#fff;stroke-miterlimit:10;stroke-width:0.75px"/><circle cx="248.5" cy="454.5" r="26" style="fill:#fff;stroke:#0fbab6;stroke-miterlimit:10;stroke-width:7px"/><rect x="281.5" y="479.5" width="45" height="12" rx="6" ry="6" transform="translate(356.07 1055.95) rotate(-153.16)" style="fill:#fff;stroke:#fff;stroke-miterlimit:10;stroke-width:0.75px"/><rect x="343.5" y="501.5" width="45" height="12" rx="6" ry="6" transform="translate(693.15 1040.87) rotate(-175.72)" style="fill:#fff;stroke:#fff;stroke-miterlimit:10;stroke-width:0.75px"/><path d="M501,405.88c-92.77-.24-168,10-168,22.36s75.21,22.36,168,22.36c22.18,0,43.33-.58,62.71-1.61,6.16-12.9,9-31.81,11.3-46C577.16,403.11,529.3,406,501,405.88Z" style="fill:#d84443"/><path d="M111.46,256.43c98.41,3.75,178.57-3.21,179-15.55s-78.92-25.39-177.34-29.14c-23.53-.9-46-1.18-66.58-.92C39.56,223.46,28,236.93,25,251,49.05,253.44,82.6,255.33,111.46,256.43Z" style="fill:#d84443"/><path d="M153,347.66c0-9-24.63-16.34-55-16.34s-55,7.32-55,16.34S67.63,364,98,364,153,356.69,153,347.66Z" style="fill:#d84443"/><path d="M241,554.66c0-9-24.63-16.34-55-16.34s-55,7.32-55,16.34S155.63,571,186,571,241,563.69,241,554.66Z" style="fill:#d84443"/></g></g></svg>