<svg id="mercury" xmlns="http://www.w3.org/2000/svg" viewBox="0 0 576.71 657"><title>Asset 1</title><g id="Layer_2" data-name="Layer 2"><g id="Layer_1-2" data-name="Layer 1"><path d="M0,368.64C0,209.39,129.1,80.29,288.36,80.29s288.36,129.1,288.36,288.36S447.61,657,288.36,657" style="fill:#ba935c"/><path d="M288.36,656C129.1,656,0,526.9,0,367.64" style="fill:#ba935c"/><line x1="196.1" x2="196.1" y2="119.64" style="fill:none;stroke:#c6c7c8;stroke-miterlimit:10;stroke-width:2px"/><polygon points="372.06 74.97 195.99 74.97 195.99 13 372.06 13 351.41 43.56 372.06 74.97" style="fill:#f6f6f6"/><text transform="translate(206.75 54.53)" style="font-size:28px;font-family:JosefinSans-Bold, Josefin Sans;font-weight:700">ME<tspan x="45.19" y="0" style="letter-spacing:-0.024989536830357144em">R</tspan><tspan x="63.7" y="0" style="letter-spacing:0.00001743861607142857em">CU</tspan><tspan x="104.38" y="0" style="letter-spacing:-0.060023716517857144em">R</tspan><tspan x="121.91" y="0">Y</tspan></text><circle cx="196.5" cy="126.5" r="26" style="fill:#fff;stroke:#0fbab6;stroke-miterlimit:10;stroke-width:7px"/><rect x="233.5" y="126.5" width="45" height="12" rx="6" ry="6" transform="translate(512 265) rotate(-180)" style="fill:#fff;stroke:#fff;stroke-miterlimit:10;stroke-width:0.75px"/><circle cx="374.5" cy="149.5" r="26" style="fill:#fff;stroke:#0fbab6;stroke-miterlimit:10;stroke-width:7px"/><rect x="295.5" y="183.5" width="45" height="12" rx="6" ry="6" transform="translate(-51.55 211.09) rotate(-34.13)" style="fill:#fff;stroke:#fff;stroke-miterlimit:10;stroke-width:0.75px"/><circle cx="268.5" cy="223.5" r="26" style="fill:#fff;stroke:#0fbab6;stroke-miterlimit:10;stroke-width:7px"/><rect x="184.5" y="258.5" width="45" height="12" rx="6" ry="6" transform="translate(518.52 390.06) rotate(150)" style="fill:#fff;stroke:#fff;stroke-miterlimit:10;stroke-width:0.75px"/><rect x="457.5" y="427.5" width="45" height="12" rx="6" ry="6" transform="translate(986.4 31.16) rotate(99.45)" style="fill:#fff;stroke:#fff;stroke-miterlimit:10;stroke-width:0.75px"/><rect x="266.5" y="310.5" width="45" height="12" rx="6" ry="6" transform="translate(578 633) rotate(-180)" style="fill:#fff;stroke:#fff;stroke-miterlimit:10;stroke-width:0.75px"/><circle cx="153.5" cy="301.5" r="26" style="fill:#fff;stroke:#0fbab6;stroke-miterlimit:10;stroke-width:7px"/><rect x="195.5" y="308.5" width="45" height="12" rx="6" ry="6" transform="translate(436 629) rotate(-180)" style="fill:#fff;stroke:#fff;stroke-miterlimit:10;stroke-width:0.75px"/><rect x="377.5" y="349.5" width="45" height="12" rx="6" ry="6" transform="translate(546.38 870.24) rotate(-147.5)" style="fill:#fff;stroke:#fff;stroke-miterlimit:10;stroke-width:0.75px"/><circle cx="357.5" cy="314.5" r="26" style="fill:#fff;stroke:#0fbab6;stroke-miterlimit:10;stroke-width:7px"/><rect x="431.5" y="383.5" width="45" height="12" rx="6" ry="6" transform="translate(683.25 942.01) rotate(-153.16)" style="fill:#fff;stroke:#fff;stroke-miterlimit:10;stroke-width:0.75px"/><rect x="435.5" y="478.5" width="45" height="12" rx="6" ry="6" transform="translate(1097.09 294.57) rotate(116.84)" style="fill:#fff;stroke:#fff;stroke-miterlimit:10;stroke-width:0.75px"/><rect x="295.5" y="130.5" width="45" height="12" rx="6" ry="6" transform="translate(609.28 323.34) rotate(-170.55)" style="fill:#fff;stroke:#fff;stroke-miterlimit:10;stroke-width:0.75px"/><circle cx="445.5" cy="538.5" r="26" style="fill:#fff;stroke:#9e0b19;stroke-miterlimit:10;stroke-width:7px"/><ellipse cx="157.59" cy="204.19" rx="23.78" ry="30.27" style="fill:#ab6a2a"/><ellipse cx="440.82" cy="231.21" rx="23.78" ry="18.38" style="fill:#ab6a2a"/><ellipse cx="278.66" cy="283.82" rx="17.3" ry="19.46" transform="translate(-80.24 455.28) rotate(-71.06)" style="fill:#ab6a2a"/><ellipse cx="331.63" cy="453.9" rx="35.67" ry="27.02" style="fill:#ab6a2a"/><ellipse cx="471.73" cy="335.96" rx="20.54" ry="18.38" style="fill:#ab6a2a"/><ellipse cx="511.92" cy="468.25" rx="19.46" ry="17.3" style="fill:#ab6a2a"/><ellipse cx="367.31" cy="586.86" rx="25.95" ry="15.14" style="fill:#ab6a2a"/><ellipse cx="232.18" cy="558.76" rx="16.22" ry="17.3" style="fill:#ab6a2a"/><ellipse cx="162.99" cy="451.74" rx="37.84" ry="24.86" style="fill:#ab6a2a"/><ellipse cx="92.72" cy="334.99" rx="19.46" ry="18.38" style="fill:#ab6a2a"/><ellipse cx="131.64" cy="531.73" rx="11.89" ry="17.29" transform="translate(-415.75 552.65) rotate(-78.28)" style="fill:#ab6a2a"/></g></g></svg>