<svg  xmlns="http://www.w3.org/2000/svg" xmlns:xlink="http://www.w3.org/1999/xlink" id="pluto" viewBox="0 0 576.71 642"><defs><linearGradient id="linear-gradient" y1="352.83" x2="268.94" y2="352.83" gradientUnits="userSpaceOnUse"><stop offset="0" stop-color="#1a171b" stop-opacity="0.5"/><stop offset="0.46" stop-color="#1a171b" stop-opacity="0.14"/><stop offset="1" stop-color="#1a171b" stop-opacity="0"/></linearGradient></defs><title>Asset 2</title><g id="Layer_2" data-name="Layer 2"><g id="Layer_1-2" data-name="Layer 1"><circle cx="288.36" cy="353.64" r="288.36" style="fill:#a5a0a0"/><path d="M254.14,216.91c0-24.73-81.56-48.36-185.72-49-12.5,12.82-24.09,28.59-31,44-.64,1.43-6.46,10.58-11.4,21.18-2.13,4.56-4.15,11.54-4.89,13-3.73,7.51-2.22,6.66-4.89,11.4,3.29.24,8.31,5.55,14.42,5.6,9,.07,15.29-.71,30.65-.71C167.83,262.41,254.14,242,254.14,216.91Z" style="fill:#696c70"/><path d="M138.84,352.83c0,196,130.09,281,130.09,281C120.41,633.85,0,508,0,352.83s120.41-281,268.94-281C268.94,71.8,138.84,163.95,138.84,352.83Z" style="fill:url(#linear-gradient)"/><path d="M545.22,488.25a573.1,573.1,0,0,0-75.76-4.79c-89.63,0-162.29,18.55-162.29,41.44s72.66,41.44,162.29,41.44c4.18,0,8.31-.06,12.41-.13A344.38,344.38,0,0,0,545.22,488.25Z" style="fill:#696c70"/><line x1="196.1" x2="196.1" y2="104.64" style="fill:none;stroke:#c6c7c8;stroke-miterlimit:10;stroke-width:2px"/><polygon points="331.28 61.97 195.99 61.97 195.99 5.9 331.28 5.9 315.41 33.55 331.28 61.97" style="fill:#f6f6f6"/><text transform="translate(203.75 44.53)" style="font-size:32px;font-family:JosefinSans-Bold, Josefin Sans;font-weight:700">PLU<tspan x="65.06" y="0" style="letter-spacing:-0.024993896484375em">T</tspan><tspan x="83.01" y="0">O</tspan></text><circle cx="196.5" cy="132.5" r="26" style="fill:#fff;stroke:#0fbab6;stroke-miterlimit:10;stroke-width:7px"/><rect x="229.5" y="152.5" width="45" height="12" rx="6" ry="6" transform="translate(85.4 -88.22) rotate(23.8)" style="fill:#fff;stroke:#fff;stroke-miterlimit:10;stroke-width:0.75px"/><rect x="284.5" y="176.5" width="45" height="12" rx="6" ry="6" transform="translate(99.76 -108.37) rotate(23.8)" style="fill:#fff;stroke:#fff;stroke-miterlimit:10;stroke-width:0.75px"/><rect x="338.5" y="193.5" width="45" height="12" rx="6" ry="6" style="fill:#fff;stroke:#fff;stroke-miterlimit:10;stroke-width:0.75px"/><circle cx="420.5" cy="199.5" r="26" style="fill:#fff;stroke:#0fbab6;stroke-miterlimit:10;stroke-width:7px"/><rect x="362.5" y="240.5" width="45" height="12" rx="6" ry="6" transform="translate(-69.93 291.47) rotate(-38.27)" style="fill:#fff;stroke:#fff;stroke-miterlimit:10;stroke-width:0.75px"/><rect x="315.5" y="270.09" width="45" height="12" rx="6" ry="6" transform="translate(-70.48 122.42) rotate(-18.63)" style="fill:#fff;stroke:#fff;stroke-miterlimit:10;stroke-width:0.75px"/><circle cx="281.5" cy="281.5" r="26" style="fill:#fff;stroke:#0fbab6;stroke-miterlimit:10;stroke-width:7px"/><rect x="200.5" y="286.5" width="45" height="12" rx="6" ry="6" transform="translate(-39.09 34.44) rotate(-8.12)" style="fill:#fff;stroke:#fff;stroke-miterlimit:10;stroke-width:0.75px"/><circle cx="160.5" cy="300.5" r="26" style="fill:#fff;stroke:#0fbab6;stroke-miterlimit:10;stroke-width:7px"/><rect x="80.5" y="301.5" width="45" height="12" rx="6" ry="6" transform="translate(-113.86 66.38) rotate(-23.45)" style="fill:#fff;stroke:#fff;stroke-miterlimit:10;stroke-width:0.75px"/><rect x="65.5" y="340.5" width="45" height="12" rx="6" ry="6" transform="translate(-194.86 565.12) rotate(-113.45)" style="fill:#fff;stroke:#fff;stroke-miterlimit:10;stroke-width:0.75px"/><circle cx="170.5" cy="419.5" r="26" style="fill:#fff;stroke:#0fbab6;stroke-miterlimit:10;stroke-width:7px"/><rect x="91.5" y="386.5" width="45" height="12" rx="6" ry="6" transform="translate(-51.94 766.02) rotate(-139.85)" style="fill:#fff;stroke:#fff;stroke-miterlimit:10;stroke-width:0.75px"/><rect x="205.5" y="398.5" width="45" height="12" rx="6" ry="6" transform="translate(-117.25 94.01) rotate(-18.63)" style="fill:#fff;stroke:#fff;stroke-miterlimit:10;stroke-width:0.75px"/><rect x="328.5" y="357.5" width="45" height="12" rx="6" ry="6" transform="translate(-97.71 131.15) rotate(-18.63)" style="fill:#fff;stroke:#fff;stroke-miterlimit:10;stroke-width:0.75px"/><rect x="265.5" y="378.5" width="45" height="12" rx="6" ry="6" transform="translate(-107.72 112.12) rotate(-18.63)" style="fill:#fff;stroke:#fff;stroke-miterlimit:10;stroke-width:0.75px"/><circle cx="410.5" cy="352.5" r="26" style="fill:#fff;stroke:#0fbab6;stroke-miterlimit:10;stroke-width:7px"/><rect x="422.5" y="395.5" width="45" height="12" rx="6" ry="6" transform="translate(370.62 996.22) rotate(-124.93)" style="fill:#fff;stroke:#fff;stroke-miterlimit:10;stroke-width:0.75px"/><circle cx="478.5" cy="449.5" r="26" style="fill:#fff;stroke:#9e0b19;stroke-miterlimit:10;stroke-width:7px"/></g></g></svg>