<svg xmlns="http://www.w3.org/2000/svg" xmlns:xlink="http://www.w3.org/1999/xlink" id="uranus" viewBox="0 0 576.71 657"><defs><linearGradient id="linear-gradient" y1="367.83" x2="268.94" y2="367.83" gradientUnits="userSpaceOnUse"><stop offset="0" stop-color="#1a171b" stop-opacity="0.5"/><stop offset="0.46" stop-color="#1a171b" stop-opacity="0.14"/><stop offset="1" stop-color="#1a171b" stop-opacity="0"/></linearGradient></defs><title>Asset 1</title><g id="Layer_2" data-name="Layer 2"><g id="Layer_1-2" data-name="Layer 1"><circle cx="288.36" cy="368.64" r="288.36" style="fill:#91c2ad"/><g style="opacity:0.61"><path d="M138.84,367.83c0,196,130.09,281,130.09,281C120.41,648.85,0,523,0,367.83s120.41-281,268.94-281C268.94,86.8,138.84,178.95,138.84,367.83Z" style="fill:url(#linear-gradient)"/></g><line x1="196.1" x2="196.1" y2="119.64" style="fill:none;stroke:#c6c7c8;stroke-miterlimit:10;stroke-width:2px"/><polygon points="372.06 74.97 195.99 74.97 195.99 13 372.06 13 351.41 43.56 372.06 74.97" style="fill:#f6f6f6"/><text transform="translate(214.75 54.53)" style="font-size:28px;font-family:JosefinSans-Bold, Josefin Sans;font-weight:700">URANUS</text><circle cx="196.5" cy="147.5" r="26" style="fill:#fff;stroke:#0fbab6;stroke-miterlimit:10;stroke-width:7px"/><rect x="129.5" y="184.5" width="45" height="12" rx="6" ry="6" transform="translate(-88.9 153.6) rotate(-42.71)" style="fill:#fff;stroke:#fff;stroke-miterlimit:10;stroke-width:0.75px"/><circle cx="405.5" cy="561.5" r="26" style="fill:#fff;stroke:#9e0b19;stroke-miterlimit:10;stroke-width:7px"/><path d="M521.69,206.91c-51.93,9.22-124.73-2-156.46-7.91A126.29,126.29,0,0,0,344,219c47.31,21.09,132.85,53.62,216.89,57.16A127.27,127.27,0,0,0,521.69,206.91Z" style="fill:#0cbcb7"/><path d="M151.06,416c-.38,2.23-12.06-4-12.06,2.3,0,4.37,11.41,18.68,12.18,22.93,126.08-1.25,233,28.23,14.36,33.16,4.87,6.93,8.58,15.39,15.46,21.61l375.36-25.31c7.32-11.49,11.75-23.8,12.78-36.62C458.2,442.41,268.1,427.31,151.06,416Z" style="fill:#0cbcb7"/><rect x="87.5" y="225.5" width="45" height="12" rx="6" ry="6" transform="translate(-127.84 135.99) rotate(-42.71)" style="fill:#fff;stroke:#fff;stroke-miterlimit:10;stroke-width:0.75px"/><circle cx="74.5" cy="276.5" r="26" style="fill:#fff;stroke:#0fbab6;stroke-miterlimit:10;stroke-width:7px"/><rect x="112.5" y="273.5" width="45" height="12" rx="6" ry="6" transform="translate(-29.08 16.02) rotate(-6.13)" style="fill:#fff;stroke:#fff;stroke-miterlimit:10;stroke-width:0.75px"/><circle cx="196.5" cy="276.5" r="26" style="fill:#fff;stroke:#0fbab6;stroke-miterlimit:10;stroke-width:7px"/><rect x="231.5" y="265.5" width="45" height="12" rx="6" ry="6" transform="translate(-27.55 28.68) rotate(-6.13)" style="fill:#fff;stroke:#fff;stroke-miterlimit:10;stroke-width:0.75px"/><rect x="287.5" y="269.5" width="45" height="12" rx="6" ry="6" transform="translate(63.92 -58.34) rotate(11.98)" style="fill:#fff;stroke:#fff;stroke-miterlimit:10;stroke-width:0.75px"/><circle cx="363.5" cy="297.5" r="26" style="fill:#fff;stroke:#0fbab6;stroke-miterlimit:10;stroke-width:7px"/><rect x="287.5" y="322.5" width="45" height="12" rx="6" ry="6" transform="translate(-92.64 123.83) rotate(-19.71)" style="fill:#fff;stroke:#fff;stroke-miterlimit:10;stroke-width:0.75px"/><rect x="229.5" y="336.5" width="45" height="12" rx="6" ry="6" transform="translate(-52.57 45.78) rotate(-9.4)" style="fill:#fff;stroke:#fff;stroke-miterlimit:10;stroke-width:0.75px"/><rect x="172.5" y="345.5" width="45" height="12" rx="6" ry="6" transform="translate(-36.43 22.84) rotate(-6.13)" style="fill:#fff;stroke:#fff;stroke-miterlimit:10;stroke-width:0.75px"/><circle cx="134.5" cy="361.5" r="26" style="fill:#fff;stroke:#0fbab6;stroke-miterlimit:10;stroke-width:7px"/><rect x="85.5" y="403.5" width="45" height="12" rx="6" ry="6" transform="translate(-315.24 394.68) rotate(-73.22)" style="fill:#fff;stroke:#fff;stroke-miterlimit:10;stroke-width:0.75px"/><rect x="85.5" y="458.5" width="45" height="12" rx="6" ry="6" transform="translate(-316.09 682.6) rotate(-104.13)" style="fill:#fff;stroke:#fff;stroke-miterlimit:10;stroke-width:0.75px"/><rect x="108.5" y="511.5" width="45" height="12" rx="6" ry="6" transform="translate(-223.75 916.4) rotate(-124.15)" style="fill:#fff;stroke:#fff;stroke-miterlimit:10;stroke-width:0.75px"/><rect x="151.5" y="546.5" width="45" height="12" rx="6" ry="6" transform="translate(229.55 1129.08) rotate(-168.02)" style="fill:#fff;stroke:#fff;stroke-miterlimit:10;stroke-width:0.75px"/><circle cx="233.5" cy="565.5" r="26" style="fill:#fff;stroke:#0fbab6;stroke-miterlimit:10;stroke-width:7px"/><rect x="267.5" y="547.5" width="45" height="12" rx="6" ry="6" transform="translate(-169.72 130.27) rotate(-19.71)" style="fill:#fff;stroke:#fff;stroke-miterlimit:10;stroke-width:0.75px"/><rect x="321.5" y="542.5" width="45" height="12" rx="6" ry="6" transform="translate(121.32 -59.45) rotate(11.98)" style="fill:#fff;stroke:#fff;stroke-miterlimit:10;stroke-width:0.75px"/></g></g></svg>