<svg id="venus" xmlns="http://www.w3.org/2000/svg" xmlns:xlink="http://www.w3.org/1999/xlink" viewBox="0 0 578.13 657"><title>Asset 3</title><g id="Layer_2" data-name="Layer 2"><g id="Layer_1-2" data-name="Layer 1"><path d="M0,368.64C0,209.39,129.1,80.29,288.36,80.29s288.36,129.1,288.36,288.36S447.61,657,288.36,657" style="fill:#cbba97"/><path d="M288.36,656C129.1,656,0,526.9,0,367.64" style="fill:#cbba97"/><line x1="196.1" x2="196.1" y2="119.64" style="fill:none;stroke:#c6c7c8;stroke-miterlimit:10;stroke-width:2px"/><polygon points="372.06 74.97 195.99 74.97 195.99 13 372.06 13 351.41 43.56 372.06 74.97" style="fill:#f6f6f6"/><text transform="translate(225.75 54.53)" style="font-size:28px;font-family:JosefinSans-Bold, Josefin Sans;font-weight:700">VENUS</text>

<a xlink:href="start-game/2/1">
<circle cx="196.5" cy="126.5" r="26" style="fill:#fff;stroke:#0fbab6;stroke-miterlimit:10;stroke-width:7px"/><rect x="233.5" y="126.5" width="45" height="12" rx="6" ry="6" transform="translate(512 265) rotate(-180)" style="fill:#fff;stroke:#fff;stroke-miterlimit:10;stroke-width:0.75px"/>
</a>

<a xlink:href="start-game/2/2">
<circle cx="374.5" cy="149.5" r="26" style="fill:#fff;stroke:#0fbab6;stroke-miterlimit:10;stroke-width:7px"/><rect x="374.5" y="193.5" width="45" height="12" rx="6" ry="6" transform="translate(385.28 643.65) rotate(-115.17)" style="fill:#fff;stroke:#fff;stroke-miterlimit:10;stroke-width:0.75px"/>
</a>

<a xlink:href="start-game/2/3">
<circle cx="423.5" cy="250.5" r="26" style="fill:#fff;stroke:#0fbab6;stroke-miterlimit:10;stroke-width:7px"/><rect x="354.5" y="285.5" width="45" height="12" rx="6" ry="6" transform="translate(849.24 355.45) rotate(150)" style="fill:#fff;stroke:#fff;stroke-miterlimit:10;stroke-width:0.75px"/><rect x="302.5" y="306.5" width="45" height="12" rx="6" ry="6" transform="translate(707.23 551.63) rotate(168.15)" style="fill:#fff;stroke:#fff;stroke-miterlimit:10;stroke-width:0.75px"/><rect x="245.5" y="318.5" width="45" height="12" rx="6" ry="6" transform="translate(596.91 587.07) rotate(168.15)" style="fill:#fff;stroke:#fff;stroke-miterlimit:10;stroke-width:0.75px"/>
</a>

<a xlink:href="start-game/2/4">
<circle cx="141.5" cy="370.5" r="26" style="fill:#fff;stroke:#0fbab6;stroke-miterlimit:10;stroke-width:7px"/><rect x="182.5" y="337.5" width="45" height="12" rx="6" ry="6" transform="translate(528.44 578.88) rotate(156.87)" style="fill:#fff;stroke:#fff;stroke-miterlimit:10;stroke-width:0.75px"/><rect x="164.5" y="405.5" width="45" height="12" rx="6" ry="6" transform="translate(123.64 859.03) rotate(-147.5)" style="fill:#fff;stroke:#fff;stroke-miterlimit:10;stroke-width:0.75px"/>
</a>

<a xlink:href="start-game/2/5">
<circle cx="248.5" cy="454.5" r="26" style="fill:#fff;stroke:#0fbab6;stroke-miterlimit:10;stroke-width:7px"/><rect x="281.5" y="479.5" width="45" height="12" rx="6" ry="6" transform="translate(356.07 1055.95) rotate(-153.16)" style="fill:#fff;stroke:#fff;stroke-miterlimit:10;stroke-width:0.75px"/><rect x="343.5" y="501.5" width="45" height="12" rx="6" ry="6" transform="translate(693.15 1040.87) rotate(-175.72)" style="fill:#fff;stroke:#fff;stroke-miterlimit:10;stroke-width:0.75px"/><rect x="295.5" y="130.5" width="45" height="12" rx="6" ry="6" transform="matrix(-0.99, -0.16, 0.16, -0.99, 609.28, 323.34)" style="fill:#fff;stroke:#fff;stroke-miterlimit:10;stroke-width:0.75px"/>
</a>

<a xlink:href="start-game/2/6">
<circle cx="437.5" cy="512.5" r="26" style="fill:#fff;stroke:#9e0b19;stroke-miterlimit:10;stroke-width:7px"/><path d="M578,376c-1.28-4.1.62-11.32,0-19-.7-8.6-3.31-13.49-3-17.95.63-8,.19-19.71-5-35.05-16.73,15.38-100.52,73.34-309.47,62.69a199,199,0,0,0-14.21,20.22c24,1,80.21,4.87,133.45,18.67C432.32,419.2,531.53,391,578,376Z" style="fill:#b89876"/><path d="M167.32,469.39q-.17,5.4-.41,10.72c-13.73-5.69-80.12-28.85-128.64,32.32C43,514.37,16.76,487.17,13,455,28.26,449.62,114.71,428.64,167.32,469.39Z" style="fill:#c4966e"/><ellipse cx="117" cy="237" rx="27" ry="13" style="fill:#b89876"/><ellipse cx="220.86" cy="563.98" rx="23.04" ry="32.24" transform="translate(-218.89 147.48) rotate(-25.17)" style="fill:#b89876"/>
</a>
</g></g>
</svg>